<svg width="123" height="32" viewBox="0 0 123 32" fill="none" xmlns="http://www.w3.org/2000/svg">
<path d="M50.1001 12V1.81818H53.6598C54.3691 1.81818 54.9541 1.94081 55.4148 2.18608C55.8755 2.42803 56.2185 2.7545 56.4439 3.16548C56.6693 3.57315 56.782 4.02557 56.782 4.52273C56.782 4.96023 56.7041 5.3215 56.5483 5.60653C56.3958 5.89157 56.1937 6.11695 55.9418 6.28267C55.6932 6.44839 55.4231 6.57102 55.1314 6.65057V6.75C55.4429 6.76989 55.7562 6.87926 56.071 7.07812C56.3859 7.27699 56.6494 7.56203 56.8615 7.93324C57.0736 8.30445 57.1797 8.75852 57.1797 9.29545C57.1797 9.80587 57.0637 10.2649 56.8317 10.6726C56.5997 11.0803 56.2334 11.4034 55.733 11.642C55.2325 11.8807 54.5812 12 53.7791 12H50.1001ZM51.3331 10.9062H53.7791C54.5845 10.9062 55.1563 10.7505 55.4943 10.4389C55.8357 10.1241 56.0064 9.7429 56.0064 9.29545C56.0064 8.95076 55.9186 8.63258 55.7429 8.34091C55.5672 8.04593 55.317 7.81061 54.9922 7.63494C54.6674 7.45597 54.2829 7.36648 53.8388 7.36648H51.3331V10.9062ZM51.3331 6.29261H53.62C53.9912 6.29261 54.326 6.2197 54.6243 6.07386C54.9259 5.92803 55.1645 5.72254 55.3402 5.45739C55.5192 5.19223 55.6087 4.88068 55.6087 4.52273C55.6087 4.07528 55.4529 3.69579 55.1413 3.38423C54.8298 3.06937 54.3359 2.91193 53.6598 2.91193H51.3331V6.29261ZM59.2056 1.81818H60.6772L64.1374 10.2699H64.2567L67.717 1.81818H69.1886V12H68.0352V4.2642H67.9357L64.7539 12H63.6403L60.4585 4.2642H60.359V12H59.2056V1.81818ZM72.8936 1.81818V12H71.6607V1.81818H72.8936Z" fill="#242424"/>
<path d="M12.7615 21.4922H9.96174C9.9106 21.13 9.8062 20.8082 9.64853 20.527C9.49086 20.2415 9.28844 19.9986 9.04128 19.7983C8.79412 19.598 8.50861 19.4446 8.18475 19.3381C7.86515 19.2315 7.51784 19.1783 7.14284 19.1783C6.46529 19.1783 5.87509 19.3466 5.37225 19.6832C4.86941 20.0156 4.47949 20.5014 4.2025 21.1406C3.92552 21.7756 3.78702 22.5469 3.78702 23.4545C3.78702 24.3878 3.92552 25.1719 4.2025 25.8068C4.48375 26.4418 4.8758 26.9212 5.37864 27.245C5.88148 27.5689 6.46316 27.7308 7.12367 27.7308C7.49441 27.7308 7.83745 27.6818 8.15279 27.5838C8.47239 27.4858 8.75577 27.343 9.00293 27.1555C9.25009 26.9638 9.45463 26.7315 9.61657 26.4588C9.78276 26.1861 9.89782 25.875 9.96174 25.5256L12.7615 25.5384C12.689 26.1392 12.5079 26.7188 12.2181 27.277C11.9326 27.831 11.547 28.3274 11.0612 28.7663C10.5796 29.201 10.0044 29.5462 9.33532 29.8018C8.67054 30.0533 7.91841 30.179 7.07892 30.179C5.91131 30.179 4.86728 29.9148 3.94682 29.3864C3.03063 28.858 2.3062 28.093 1.77353 27.0916C1.24512 26.0902 0.980913 24.8778 0.980913 23.4545C0.980913 22.027 1.24938 20.8125 1.78631 19.8111C2.32324 18.8097 3.05194 18.0469 3.97239 17.5227C4.89284 16.9943 5.92836 16.7301 7.07892 16.7301C7.83745 16.7301 8.54057 16.8366 9.1883 17.0497C9.84029 17.2628 10.4177 17.5739 10.9205 17.983C11.4234 18.3878 11.8325 18.8842 12.1478 19.4723C12.4674 20.0604 12.672 20.7337 12.7615 21.4922ZM16.7565 30H13.7906L18.3097 16.9091H21.8765L26.3893 30H23.4234L20.1443 19.9006H20.042L16.7565 30ZM16.5711 24.8544H23.5768V27.0149H16.5711V24.8544ZM27.9649 30V16.9091H30.7327V27.718H36.3449V30H27.9649ZM49.2185 21.4922H46.4188C46.3676 21.13 46.2632 20.8082 46.1056 20.527C45.9479 20.2415 45.7455 19.9986 45.4983 19.7983C45.2512 19.598 44.9656 19.4446 44.6418 19.3381C44.3222 19.2315 43.9749 19.1783 43.5999 19.1783C42.9223 19.1783 42.3321 19.3466 41.8293 19.6832C41.3264 20.0156 40.9365 20.5014 40.6595 21.1406C40.3825 21.7756 40.2441 22.5469 40.2441 23.4545C40.2441 24.3878 40.3825 25.1719 40.6595 25.8068C40.9408 26.4418 41.3328 26.9212 41.8357 27.245C42.3385 27.5689 42.9202 27.7308 43.5807 27.7308C43.9514 27.7308 44.2945 27.6818 44.6098 27.5838C44.9294 27.4858 45.2128 27.343 45.46 27.1555C45.7071 26.9638 45.9117 26.7315 46.0736 26.4588C46.2398 26.1861 46.3548 25.875 46.4188 25.5256L49.2185 25.5384C49.146 26.1392 48.9649 26.7188 48.6752 27.277C48.3896 27.831 48.004 28.3274 47.5182 28.7663C47.0367 29.201 46.4614 29.5462 45.7923 29.8018C45.1276 30.0533 44.3754 30.179 43.536 30.179C42.3683 30.179 41.3243 29.9148 40.4039 29.3864C39.4877 28.858 38.7632 28.093 38.2306 27.0916C37.7021 26.0902 37.4379 24.8778 37.4379 23.4545C37.4379 22.027 37.7064 20.8125 38.2433 19.8111C38.7803 18.8097 39.509 18.0469 40.4294 17.5227C41.3499 16.9943 42.3854 16.7301 43.536 16.7301C44.2945 16.7301 44.9976 16.8366 45.6453 17.0497C46.2973 17.2628 46.8747 17.5739 47.3776 17.983C47.8804 18.3878 48.2895 18.8842 48.6048 19.4723C48.9244 20.0604 49.129 20.7337 49.2185 21.4922ZM59.2892 16.9091H62.0569V25.4105C62.0569 26.3651 61.8289 27.2003 61.373 27.9162C60.9213 28.6321 60.2884 29.1903 59.4745 29.5909C58.6606 29.9872 57.7124 30.1854 56.6301 30.1854C55.5434 30.1854 54.5931 29.9872 53.7792 29.5909C52.9653 29.1903 52.3325 28.6321 51.8808 27.9162C51.4291 27.2003 51.2032 26.3651 51.2032 25.4105V16.9091H53.971V25.174C53.971 25.6726 54.0796 26.1158 54.297 26.5036C54.5186 26.8913 54.8296 27.196 55.2302 27.4176C55.6308 27.6392 56.0974 27.75 56.6301 27.75C57.167 27.75 57.6336 27.6392 58.0299 27.4176C58.4305 27.196 58.7394 26.8913 58.9568 26.5036C59.1784 26.1158 59.2892 25.6726 59.2892 25.174V16.9091ZM64.3341 30V16.9091H67.1018V27.718H72.714V30H64.3341ZM77.1373 30H74.1714L78.6906 16.9091H82.2574L86.7702 30H83.8042L80.5251 19.9006H80.4229L77.1373 30ZM76.952 24.8544H83.9577V27.0149H76.952V24.8544ZM86.2476 19.1911V16.9091H96.999V19.1911H92.9912V30H90.2554V19.1911H86.2476ZM110.202 23.4545C110.202 24.8821 109.931 26.0966 109.39 27.098C108.853 28.0994 108.12 28.8643 107.191 29.3928C106.266 29.9169 105.227 30.179 104.072 30.179C102.908 30.179 101.864 29.9148 100.94 29.3864C100.015 28.858 99.2842 28.093 98.7472 27.0916C98.2103 26.0902 97.9419 24.8778 97.9419 23.4545C97.9419 22.027 98.2103 20.8125 98.7472 19.8111C99.2842 18.8097 100.015 18.0469 100.94 17.5227C101.864 16.9943 102.908 16.7301 104.072 16.7301C105.227 16.7301 106.266 16.9943 107.191 17.5227C108.12 18.0469 108.853 18.8097 109.39 19.8111C109.931 20.8125 110.202 22.027 110.202 23.4545ZM107.396 23.4545C107.396 22.5298 107.257 21.75 106.98 21.1151C106.707 20.4801 106.322 19.9986 105.823 19.6705C105.325 19.3423 104.741 19.1783 104.072 19.1783C103.403 19.1783 102.819 19.3423 102.32 19.6705C101.822 19.9986 101.434 20.4801 101.157 21.1151C100.884 21.75 100.748 22.5298 100.748 23.4545C100.748 24.3793 100.884 25.1591 101.157 25.794C101.434 26.429 101.822 26.9105 102.32 27.2386C102.819 27.5668 103.403 27.7308 104.072 27.7308C104.741 27.7308 105.325 27.5668 105.823 27.2386C106.322 26.9105 106.707 26.429 106.98 25.794C107.257 25.1591 107.396 24.3793 107.396 23.4545ZM112.252 30V16.9091H117.417C118.405 16.9091 119.249 17.0859 119.948 17.4396C120.651 17.7891 121.186 18.2855 121.552 18.929C121.923 19.5682 122.109 20.3203 122.109 21.1854C122.109 22.0547 121.921 22.8026 121.546 23.429C121.171 24.0511 120.628 24.5284 119.916 24.8608C119.209 25.1932 118.352 25.3594 117.347 25.3594H113.888V23.1349H116.899C117.427 23.1349 117.866 23.0625 118.216 22.9176C118.565 22.7727 118.825 22.5554 118.996 22.2656C119.17 21.9759 119.258 21.6158 119.258 21.1854C119.258 20.7507 119.17 20.3842 118.996 20.0859C118.825 19.7876 118.563 19.5618 118.209 19.4084C117.86 19.2507 117.419 19.1719 116.886 19.1719H115.02V30H112.252ZM119.322 24.0426L122.575 30H119.52L116.337 24.0426H119.322Z" fill="#242424"/>
</svg>
